<svg width="66" height="65" viewBox="0 0 66 65" fill="none" xmlns="http://www.w3.org/2000/svg">
<g clip-path="url(#clip0_4280_9117)">
<path d="M52.4746 48.1949H46.681C46.2276 48.1949 45.9203 48.6565 46.0956 49.0749C47.681 52.868 49.248 56.6165 50.827 60.3956C51.394 61.7511 50.7591 63.3105 49.4067 63.8851L49.3584 63.9054C47.9959 64.4838 46.4219 63.8438 45.8505 62.4781C44.1832 58.4978 42.5254 54.5391 40.8359 50.5041C40.6632 50.0921 40.1305 49.9822 39.8092 50.2921C38.4511 51.6026 37.1102 52.8965 35.7553 54.2045C34.9489 54.9829 33.6035 54.4115 33.6035 53.2908V29.4057C33.6035 28.2762 34.968 27.7086 35.7692 28.5054L53.3724 46.0235C54.1756 46.8229 53.6092 48.1937 52.4765 48.1937L52.4746 48.1949Z" fill="#4E198A"/>
<path d="M48.7077 8.2438C51.0569 8.31872 52.9769 6.39872 52.902 4.04952C52.8341 1.9219 51.1014 0.189198 48.9737 0.121261C46.6245 0.0463407 44.7045 1.96634 44.7795 4.31555C44.8474 6.44317 46.5801 8.17587 48.7077 8.2438Z" fill="#822EEF"/>
<path d="M18.2312 8.24395C20.5804 8.31887 22.5004 6.39887 22.4254 4.04966C22.3575 1.92204 20.6248 0.18871 18.4972 0.120773C16.148 0.0458525 14.228 1.96585 14.3029 4.31506C14.3708 6.44268 16.1035 8.17538 18.2312 8.24331V8.24395Z" fill="#822EEF"/>
<path d="M64.2825 10.4185C63.2202 8.4318 61.6609 6.87307 59.6742 5.81021C58.7352 5.30799 57.7999 4.91688 56.5002 4.64386C56.2609 8.7772 52.8336 12.0547 48.6406 12.0547C44.4475 12.0547 40.7675 8.52958 40.7675 4.18164H26.0374C26.0374 8.52958 22.5123 12.0547 18.1644 12.0547C13.8164 12.0547 10.5441 8.77656 10.3047 4.64323C9.00564 4.91624 8.06977 5.30735 7.13136 5.80958C5.1631 6.86228 3.55485 8.47878 2.50596 10.4496C1.45453 12.4261 0.894531 14.4045 0.894531 19.8096V48.4908C0.894531 53.9251 1.46025 55.8953 2.52247 57.882C3.58469 59.8686 5.14406 61.4273 7.13072 62.4902C9.11739 63.5524 11.0875 64.1181 16.5218 64.1181H30.1009C31.9244 64.1181 33.4025 62.64 33.4025 60.8166C33.4025 58.9931 31.9244 57.515 30.1009 57.515H16.4095C13.1269 57.515 11.9358 57.1734 10.7358 56.5315C9.55358 55.8991 8.58342 54.9289 7.95104 53.7467C7.30913 52.5467 6.96755 51.3562 6.96755 48.0731V28.3531C6.96755 25.0705 7.30913 23.8801 7.95104 22.6794C8.58342 21.4972 9.55358 20.527 10.7358 19.8947C11.9358 19.2528 13.1263 18.9112 16.4095 18.9112H50.3517C53.6342 18.9112 54.8247 19.2528 56.0253 19.8947C57.2076 20.527 58.1777 21.4972 58.8101 22.6794C59.452 23.8794 59.7936 25.0699 59.7936 28.3531V48.0731C59.7936 51.3213 59.459 52.5213 58.8304 53.7086C58.2037 54.8921 57.2514 55.868 56.0736 56.5055C55.9568 56.5689 55.8399 56.6293 55.7218 56.6864C54.5193 57.2718 53.7479 58.482 53.7479 59.8191C53.7479 62.2845 56.252 63.981 58.5295 63.0369C58.9263 62.8724 59.3003 62.6896 59.6742 62.4896C61.6609 61.4274 63.2196 59.868 64.2825 57.8813C65.3447 55.8947 65.9104 53.9245 65.9104 48.4902V19.8089C65.9104 14.3747 65.3447 12.4045 64.2825 10.4178V10.4185Z" fill="#5E1EAB"/>
</g>
<defs>
<clipPath id="clip0_4280_9117">
<rect width="65.0159" height="64" fill="white" transform="translate(0.894531 0.118652)"/>
</clipPath>
</defs>
</svg>
