<svg width="104" height="97" viewBox="0 0 104 97" fill="none" xmlns="http://www.w3.org/2000/svg">
<path d="M28.0802 42.8576C29.0616 42.8379 30.3017 41.9774 31.1904 43.5353C31.331 43.78 32.1015 43.884 32.4671 43.7462C33.8759 43.2204 35.9485 43.5578 36.0778 41.1844C36.0863 41.0522 36.4237 40.906 36.6318 40.8216C37.8804 40.307 39.1346 39.8093 40.1948 39.3818C41.3927 40.2452 42.4754 41.0241 43.5581 41.8031C43.6312 41.699 43.7015 41.5978 43.7746 41.4937C41.0946 39.3846 40.7516 37.554 42.422 34.4887C43.648 32.2391 44.8432 29.9697 46.1311 27.5653C44.4523 26.3477 42.8466 25.1835 41.2437 24.0192C41.1059 24.0755 40.9709 24.1289 40.8331 24.1852C41.2043 26.1058 41.4321 28.0687 41.9917 29.9359C42.4191 31.3645 42.3685 32.5568 41.4883 33.7295C41.4602 33.766 41.4321 33.8082 41.4237 33.8532C40.6588 36.9662 38.0857 37.8127 35.9485 38.4623C34.8686 38.0714 34.0025 37.433 33.5329 37.6496C32.1268 38.3048 29.8321 37.6439 29.5453 40.0933C27.0594 40.5995 26.8822 40.6557 26.1567 38.3442C23.8592 31.0242 18.5218 25.7993 13.7834 20.1779C10.0489 15.7488 6.10349 11.4997 2.25933 7.16342C1.98093 6.84846 1.72784 6.5082 1.50006 6.15668C0.529876 4.66345 0.740784 3.04086 2.02311 2.01162C3.2042 1.06394 4.9224 1.1483 6.08662 2.35751C8.38693 4.75062 10.6085 7.21966 12.8807 9.63527C14.5145 11.3703 16.1315 13.1307 17.8469 14.7843C22.8918 19.6436 28.6032 19.3708 33.2235 14.1262C33.4822 13.8338 33.8675 13.5554 34.2387 13.4794C36.8287 12.9367 39.4186 12.9086 41.6233 14.579C45.0119 17.1464 48.364 19.7729 51.5895 22.5373C54.4213 24.9613 54.7025 26.6008 52.8661 29.7785C50.9061 33.1727 48.7801 36.4769 46.5839 39.7249C45.9933 40.5995 45.9652 41.2125 46.3139 42.1068C49.7475 50.889 53.1502 59.6797 56.55 68.4732C56.7497 68.9934 56.9268 69.5333 57.0196 70.0789C57.2868 71.648 56.5556 72.9838 55.1355 73.6137C53.7182 74.2436 52.1941 73.9202 51.2183 72.7026C50.8161 72.1992 50.5152 71.6031 50.2199 71.0238C46.8285 64.3675 43.4596 57.6971 40.0373 51.0577C39.6745 50.3547 38.9996 49.8148 38.4709 49.2017C37.9451 49.8092 37.318 50.3547 36.913 51.0352C35.7629 52.9587 34.7618 54.9722 33.5835 56.876C33.0154 57.7956 32.9901 58.4564 33.575 59.3957C35.6476 62.728 37.6835 66.0857 39.5733 69.5221C40.0907 70.4641 40.4225 71.7999 40.1891 72.8038C39.6127 75.2982 36.3759 75.9421 34.6071 74.0018C33.6988 73.0035 32.9536 71.8589 32.1296 70.7791C30.088 68.1048 28.0858 65.3967 25.9936 62.7646C24.0729 60.3461 23.6145 57.8546 24.8772 54.9356C26.0076 52.3288 26.9413 49.6236 27.7512 46.8986C28.1195 45.6585 27.9817 44.2665 28.0774 42.8492L28.0802 42.8576Z" fill="#822EEF"/>
<path d="M42.3242 11.7446C43.286 12.0118 43.8624 12.1411 44.4164 12.3295C60.9151 17.8863 77.4138 23.4374 93.904 29.0195C95.4929 29.5566 97.048 30.2118 98.575 30.9064C99.548 31.3479 100.493 31.8878 101.356 32.5149C104.087 34.5003 104.002 36.2128 100.974 37.6555C98.5356 38.8169 95.9625 39.6914 93.4541 40.7038C92.9423 40.9091 92.4417 41.1509 91.7837 41.4462C92.4024 41.9383 92.9226 42.3067 93.3922 42.7341C94.5058 43.7521 94.4468 44.6942 93.0267 45.1497C90.9963 45.805 88.8872 46.2802 86.7781 46.6149C82.7231 47.2616 78.6314 47.6891 74.5792 48.3499C73.2715 48.5637 71.9695 49.098 70.7828 49.711C69.1293 50.5687 68.8565 51.6739 69.6608 53.333C69.9448 53.9207 70.316 54.4663 70.631 55.0371C71.4296 56.4882 71.1512 57.0844 69.4668 57.225C66.6743 57.4584 63.9185 57.0506 61.3707 55.9455C58.6401 54.7587 56.0333 53.288 53.4068 51.8791C53.0046 51.6654 52.6672 51.1677 52.49 50.7262C51.3427 47.8662 50.2094 45.0007 49.1717 42.1014C48.9946 41.6065 49.138 40.8331 49.4192 40.3607C51.2667 37.2758 53.3055 34.3006 55.0659 31.1707C57.5799 26.7023 57.1131 23.8761 53.238 20.5241C50.0266 17.7457 46.6155 15.2007 43.2944 12.5517C43.0779 12.3802 42.8698 12.2002 42.327 11.7474L42.3242 11.7446Z" fill="#5E1EAB"/>
<path d="M32.0655 7.31826C32.0711 11.3255 28.8485 14.5679 24.8721 14.5595C20.9155 14.551 17.6844 11.2721 17.7012 7.2817C17.7181 3.37005 20.9267 0.147365 24.8356 0.116431C28.8175 0.0854981 32.0599 3.31381 32.0627 7.31826H32.0655Z" fill="#822EEF"/>
<path d="M60.6365 95.4499C60.4903 95.6158 60.1837 96.1557 60.0122 96.1163C59.6382 96.0292 59.1629 95.7114 59.028 95.3711C58.3727 93.7232 57.8188 92.036 57.2198 90.3656C55.9599 86.8504 54.6917 83.3381 53.429 79.8201C53.2884 79.4264 53.0241 79.0018 53.0747 78.6278C53.1422 78.1554 53.474 77.7195 53.6934 77.2695C54.1293 77.5254 54.8351 77.6885 54.9588 78.0485C56.8683 83.6615 58.6989 89.2998 60.5493 94.9324C60.5774 95.0196 60.5831 95.1152 60.6365 95.4471V95.4499Z" fill="#5E1EAB"/>
<path d="M39.2855 76.5527C39.4739 76.9689 39.5892 77.4104 39.8423 77.7479C42.6882 81.5189 45.565 85.2619 48.3912 89.047C48.633 89.3732 48.5627 89.9356 48.6358 90.3883C48.214 90.214 47.6488 90.1577 47.3929 89.8484C44.3698 86.1589 41.3806 82.4413 38.4194 78.7012C38.1719 78.389 38.0848 77.8744 38.1016 77.4639C38.1101 77.2698 38.5516 77.0983 39.2855 76.5555V76.5527Z" fill="#5E1EAB"/>
<path d="M58.181 75.5599C58.3835 75.8355 58.6844 76.0858 58.7716 76.3951C59.663 79.4744 60.532 82.5593 61.3615 85.6554C61.4318 85.9198 61.1787 86.2713 61.0747 86.5834C60.8329 86.3472 60.4645 86.156 60.3717 85.872C59.3959 82.8686 58.4454 79.8569 57.5427 76.8282C57.4358 76.4683 57.6749 76.0071 57.7508 75.5909C57.8942 75.5796 58.0348 75.5684 58.1782 75.5571L58.181 75.5599Z" fill="#5E1EAB"/>
</svg>
