<svg width="26" height="32" viewBox="0 0 26 32" fill="none" xmlns="http://www.w3.org/2000/svg">
<g id="avatars-unknow-copy">
<path id="avatar" d="M11.6687 22.4938L11.7434 22.5675C13.7208 24.4932 16.5078 25.1931 19.0762 24.5626L19.1432 24.5457L20.9621 26.3646C21.078 26.4804 21.1991 26.5877 21.3248 26.6863C21.3134 30.2288 17.7593 32 10.6626 32C3.55419 32 0 30.2228 0 26.6684C0 21.4581 4.52588 13.6848 10.2604 13.3341L10.2604 13.3345C8.72007 16.2866 9.18949 20.0145 11.6687 22.4938ZM10.6758 0C13.6202 0 16.0071 2.38687 16.0071 5.33123C16.0071 8.27559 13.6202 10.6625 10.6758 10.6625C7.73149 10.6625 5.34461 8.27559 5.34461 5.33123C5.34461 2.38687 7.73149 0 10.6758 0Z" fill="#B480FF"/>
<path id="Shape" d="M20.976 13.1865C22.6889 14.8994 22.9925 17.4878 21.887 19.5112L24.8512 22.4755C25.437 23.0613 25.437 24.011 24.8512 24.5968C24.2654 25.1826 23.3157 25.1826 22.7299 24.5968L19.7669 21.6338C17.7427 22.7431 15.151 22.4405 13.4365 20.726C11.3545 18.644 11.3545 15.2685 13.4365 13.1865C15.5185 11.1045 18.894 11.1045 20.976 13.1865ZM18.9431 15.2194C17.9838 14.2602 16.4286 14.2602 15.4694 15.2194C14.5102 16.1786 14.5102 17.7338 15.4694 18.6931C16.4286 19.6523 17.9838 19.6523 18.9431 18.6931C19.9023 17.7338 19.9023 16.1786 18.9431 15.2194Z" fill="#1C2630"/>
</g>
</svg>
